<svg width="13" height="13" viewBox="0 0 13 13" fill="none" xmlns="http://www.w3.org/2000/svg">
<path d="M0.99999 1C0.99999 1.55 1.44999 2 1.99999 2H9.58999L0.70999 10.88C0.617408 10.9726 0.543968 11.0825 0.493863 11.2035C0.443758 11.3244 0.417969 11.4541 0.417969 11.585C0.417969 11.7159 0.443758 11.8456 0.493863 11.9665C0.543968 12.0875 0.617408 12.1974 0.70999 12.29C0.802571 12.3826 0.912482 12.456 1.03345 12.5061C1.15441 12.5562 1.28406 12.582 1.41499 12.582C1.54592 12.582 1.67557 12.5562 1.79653 12.5061C1.9175 12.456 2.02741 12.3826 2.11999 12.29L11 3.41V11C11 11.55 11.45 12 12 12C12.55 12 13 11.55 13 11V1C13 0.45 12.55 0 12 0H1.99999C1.44999 0 0.99999 0.45 0.99999 1Z" fill="#38BEAC"/>
</svg>
