<svg width="11" height="20" viewBox="0 0 11 20" fill="none" xmlns="http://www.w3.org/2000/svg">
<path d="M10.62 19.01C10.13 19.5 9.34001 19.5 8.85001 19.01L0.54001 10.7C0.447307 10.6075 0.373759 10.4976 0.323578 10.3767C0.273396 10.2557 0.247566 10.126 0.247566 9.99505C0.247566 9.86408 0.273396 9.7344 0.323578 9.61342C0.373759 9.49245 0.447307 9.38256 0.54001 9.29005L8.85001 0.980049C9.34001 0.490049 10.13 0.490049 10.62 0.980049C11.11 1.47005 11.11 2.26005 10.62 2.75005L3.38001 10L10.63 17.25C11.11 17.73 11.11 18.5301 10.62 19.01Z" fill="white"/>
</svg>
