<svg width="12" height="19" viewBox="0 0 12 19" fill="none" xmlns="http://www.w3.org/2000/svg">
<path d="M1.1499 18.6C0.899902 18.35 0.774902 18.054 0.774902 17.712C0.774902 17.37 0.899902 17.0743 1.1499 16.825L8.4749 9.5L1.1249 2.15C0.891569 1.91667 0.774902 1.625 0.774902 1.275C0.774902 0.925 0.899902 0.625 1.1499 0.375C1.3999 0.125 1.6959 0 2.0379 0C2.3799 0 2.67557 0.125 2.9249 0.375L11.3249 8.8C11.4249 8.9 11.4959 9.00833 11.5379 9.125C11.5799 9.24167 11.6006 9.36667 11.5999 9.5C11.5999 9.63333 11.5789 9.75833 11.5369 9.875C11.4949 9.99167 11.4242 10.1 11.3249 10.2L2.8999 18.625C2.66657 18.8583 2.3789 18.975 2.0369 18.975C1.6949 18.975 1.39924 18.85 1.1499 18.6Z" fill="#38BEAC"/>
</svg>
