<svg width="24" height="24" viewBox="0 0 24 24" fill="none" xmlns="http://www.w3.org/2000/svg">
<path d="M21.0098 16.6201C21.4998 16.1301 21.4998 15.3401 21.0098 14.8501L12.6998 6.54013C12.6073 6.44743 12.4974 6.37388 12.3764 6.3237C12.2555 6.27352 12.1258 6.24769 11.9948 6.24769C11.8638 6.24769 11.7342 6.27352 11.6132 6.3237C11.4922 6.37388 11.3823 6.44743 11.2898 6.54013L2.9798 14.8501C2.4898 15.3401 2.4898 16.1301 2.9798 16.6201C3.4698 17.1101 4.2598 17.1101 4.7498 16.6201L11.9998 9.38013L19.2498 16.6301C19.7298 17.1101 20.5298 17.1101 21.0098 16.6201Z" fill="white"/>
</svg>
