<svg width="20" height="19" viewBox="0 0 20 19" fill="none" xmlns="http://www.w3.org/2000/svg">
<g filter="url(#filter0_d_295_612)">
<path d="M6.66667 10.6667C6.43056 10.6667 6.2325 10.5867 6.0725 10.4267C5.9125 10.2667 5.83278 10.069 5.83333 9.83341C5.83333 9.5973 5.91333 9.39925 6.07333 9.23925C6.23334 9.07925 6.43111 8.99953 6.66667 9.00008C6.90278 9.00008 7.10083 9.08008 7.26084 9.24008C7.42084 9.40008 7.50056 9.59786 7.5 9.83341C7.5 10.0695 7.42 10.2676 7.26 10.4276C7.1 10.5876 6.90222 10.6673 6.66667 10.6667ZM10 10.6667C9.76389 10.6667 9.56583 10.5867 9.40583 10.4267C9.24583 10.2667 9.16611 10.069 9.16667 9.83341C9.16667 9.5973 9.24667 9.39925 9.40667 9.23925C9.56667 9.07925 9.76445 8.99953 10 9.00008C10.2361 9.00008 10.4342 9.08008 10.5942 9.24008C10.7542 9.40008 10.8339 9.59786 10.8333 9.83341C10.8333 10.0695 10.7533 10.2676 10.5933 10.4276C10.4333 10.5876 10.2356 10.6673 10 10.6667ZM13.3333 10.6667C13.0972 10.6667 12.8992 10.5867 12.7392 10.4267C12.5792 10.2667 12.4994 10.069 12.5 9.83341C12.5 9.5973 12.58 9.39925 12.74 9.23925C12.9 9.07925 13.0978 8.99953 13.3333 9.00008C13.5694 9.00008 13.7675 9.08008 13.9275 9.24008C14.0875 9.40008 14.1672 9.59786 14.1667 9.83341C14.1667 10.0695 14.0867 10.2676 13.9267 10.4276C13.7667 10.5876 13.5689 10.6673 13.3333 10.6667ZM4.16667 17.3334C3.70833 17.3334 3.31583 17.1701 2.98917 16.8434C2.6625 16.5167 2.49945 16.1245 2.5 15.6667V4.00008C2.5 3.54175 2.66333 3.14925 2.99 2.82258C3.31667 2.49591 3.70889 2.33286 4.16667 2.33341H5V0.666748H6.66667V2.33341H13.3333V0.666748H15V2.33341H15.8333C16.2917 2.33341 16.6842 2.49675 17.0108 2.82341C17.3375 3.15008 17.5006 3.5423 17.5 4.00008V15.6667C17.5 16.1251 17.3367 16.5176 17.01 16.8442C16.6833 17.1709 16.2911 17.334 15.8333 17.3334H4.16667ZM4.16667 15.6667H15.8333V7.33341H4.16667V15.6667Z" fill="#696969"/>
</g>
<defs>
<filter id="filter0_d_295_612" x="-1.5" y="0.666748" width="23" height="24.6667" filterUnits="userSpaceOnUse" color-interpolation-filters="sRGB">
<feFlood flood-opacity="0" result="BackgroundImageFix"/>
<feColorMatrix in="SourceAlpha" type="matrix" values="0 0 0 0 0 0 0 0 0 0 0 0 0 0 0 0 0 0 127 0" result="hardAlpha"/>
<feOffset dy="4"/>
<feGaussianBlur stdDeviation="2"/>
<feComposite in2="hardAlpha" operator="out"/>
<feColorMatrix type="matrix" values="0 0 0 0 0 0 0 0 0 0 0 0 0 0 0 0 0 0 0.25 0"/>
<feBlend mode="normal" in2="BackgroundImageFix" result="effect1_dropShadow_295_612"/>
<feBlend mode="normal" in="SourceGraphic" in2="effect1_dropShadow_295_612" result="shape"/>
</filter>
</defs>
</svg>
