<svg width="48" height="48" viewBox="0 0 48 48" fill="none" xmlns="http://www.w3.org/2000/svg">
<path d="M17.7 9H30.3C35.1 9 39 12.9 39 17.7V30.3C39 32.6074 38.0834 34.8203 36.4518 36.4518C34.8203 38.0834 32.6074 39 30.3 39H17.7C12.9 39 9 35.1 9 30.3V17.7C9 15.3926 9.9166 13.1797 11.5482 11.5482C13.1797 9.9166 15.3926 9 17.7 9ZM17.4 12C15.9678 12 14.5943 12.5689 13.5816 13.5816C12.5689 14.5943 12 15.9678 12 17.4V30.6C12 33.585 14.415 36 17.4 36H30.6C32.0322 36 33.4057 35.4311 34.4184 34.4184C35.4311 33.4057 36 32.0322 36 30.6V17.4C36 14.415 33.585 12 30.6 12H17.4ZM31.875 14.25C32.3723 14.25 32.8492 14.4475 33.2008 14.7992C33.5525 15.1508 33.75 15.6277 33.75 16.125C33.75 16.6223 33.5525 17.0992 33.2008 17.4508C32.8492 17.8025 32.3723 18 31.875 18C31.3777 18 30.9008 17.8025 30.5492 17.4508C30.1975 17.0992 30 16.6223 30 16.125C30 15.6277 30.1975 15.1508 30.5492 14.7992C30.9008 14.4475 31.3777 14.25 31.875 14.25ZM24 16.5C25.9891 16.5 27.8968 17.2902 29.3033 18.6967C30.7098 20.1032 31.5 22.0109 31.5 24C31.5 25.9891 30.7098 27.8968 29.3033 29.3033C27.8968 30.7098 25.9891 31.5 24 31.5C22.0109 31.5 20.1032 30.7098 18.6967 29.3033C17.2902 27.8968 16.5 25.9891 16.5 24C16.5 22.0109 17.2902 20.1032 18.6967 18.6967C20.1032 17.2902 22.0109 16.5 24 16.5ZM24 19.5C22.8065 19.5 21.6619 19.9741 20.818 20.818C19.9741 21.6619 19.5 22.8065 19.5 24C19.5 25.1935 19.9741 26.3381 20.818 27.182C21.6619 28.0259 22.8065 28.5 24 28.5C25.1935 28.5 26.3381 28.0259 27.182 27.182C28.0259 26.3381 28.5 25.1935 28.5 24C28.5 22.8065 28.0259 21.6619 27.182 20.818C26.3381 19.9741 25.1935 19.5 24 19.5Z" fill="#8E8E8E"/>
</svg>
