<svg width="48" height="48" viewBox="0 0 48 48" fill="none" xmlns="http://www.w3.org/2000/svg">
<path d="M37.5 16.125C35.7104 16.1231 33.9946 15.4114 32.7291 14.1459C31.4636 12.8804 30.7519 11.1646 30.75 9.375C30.75 9.07663 30.6315 8.79048 30.4205 8.5795C30.2095 8.36853 29.9234 8.25 29.625 8.25H24C23.7016 8.25 23.4155 8.36853 23.2045 8.5795C22.9935 8.79048 22.875 9.07663 22.875 9.375V27.9375C22.8748 28.4408 22.7395 28.9348 22.4833 29.368C22.2271 29.8011 21.8594 30.1576 21.4184 30.4003C20.9775 30.6429 20.4796 30.7628 19.9765 30.7474C19.4735 30.732 18.9838 30.5819 18.5585 30.3128C18.1332 30.0437 17.788 29.6654 17.5587 29.2173C17.3295 28.7693 17.2247 28.268 17.2552 27.7656C17.2857 27.2633 17.4505 26.7783 17.7323 26.3613C18.0141 25.9444 18.4026 25.6107 18.8573 25.395C19.0497 25.3037 19.2122 25.1597 19.326 24.9797C19.4397 24.7998 19.5001 24.5912 19.5 24.3783V18.375C19.5001 18.2106 19.4641 18.0481 19.3946 17.899C19.3251 17.75 19.2238 17.618 19.0977 17.5124C18.9717 17.4067 18.8241 17.33 18.6652 17.2876C18.5063 17.2452 18.34 17.2381 18.1781 17.2669C13.1592 18.1613 9.375 22.7484 9.375 27.9375C9.375 30.772 10.501 33.4904 12.5053 35.4947C14.5096 37.499 17.228 38.625 20.0625 38.625C22.897 38.625 25.6154 37.499 27.6197 35.4947C29.624 33.4904 30.75 30.772 30.75 27.9375V22.3533C32.8336 23.4404 35.1499 24.0055 37.5 24C37.7984 24 38.0845 23.8815 38.2955 23.6705C38.5065 23.4595 38.625 23.1734 38.625 22.875V17.25C38.625 16.9516 38.5065 16.6655 38.2955 16.4545C38.0845 16.2435 37.7984 16.125 37.5 16.125ZM36.375 21.6994C34.1765 21.5046 32.0714 20.7199 30.2817 19.4283C30.1135 19.3073 29.9152 19.2352 29.7086 19.2198C29.502 19.2044 29.2951 19.2464 29.1109 19.3411C28.9266 19.4357 28.772 19.5795 28.6642 19.7564C28.5565 19.9333 28.4996 20.1366 28.5 20.3438V27.9375C28.5 30.1753 27.6111 32.3214 26.0287 33.9037C24.4464 35.4861 22.3003 36.375 20.0625 36.375C17.8247 36.375 15.6786 35.4861 14.0963 33.9037C12.5139 32.3214 11.625 30.1753 11.625 27.9375C11.625 24.2953 13.965 21.0286 17.25 19.8375V23.7286C16.5228 24.2145 15.9338 24.8805 15.5406 25.6618C15.1473 26.443 14.9632 27.3128 15.0061 28.1864C15.049 29.06 15.3175 29.9076 15.7855 30.6465C16.2534 31.3854 16.9048 31.9905 17.6762 32.4028C18.4476 32.815 19.3126 33.0204 20.187 32.9989C21.0614 32.9774 21.9152 32.7297 22.6654 32.28C23.4156 31.8303 24.0365 31.194 24.4675 30.4329C24.8986 29.6719 25.1251 28.8121 25.125 27.9375V10.5H28.5703C28.8233 12.4815 29.727 14.323 31.1395 15.7355C32.552 17.148 34.3935 18.0517 36.375 18.3047V21.6994Z" fill="#8E8E8E"/>
</svg>
