<svg width="48" height="48" viewBox="0 0 48 48" fill="none" xmlns="http://www.w3.org/2000/svg">
<path d="M34.5752 13.3651C33.2 11.976 31.562 10.8746 29.7567 10.1252C27.9513 9.37574 26.0149 8.99328 24.0602 9.00009C15.8702 9.00009 9.1952 15.6751 9.1952 23.8651C9.1952 26.4901 9.8852 29.0401 11.1752 31.2901L9.0752 39.0001L16.9502 36.9301C19.1252 38.1151 21.5702 38.7451 24.0602 38.7451C32.2502 38.7451 38.9252 32.0701 38.9252 23.8801C38.9252 19.9051 37.3802 16.1701 34.5752 13.3651ZM24.0602 36.2251C21.8402 36.2251 19.6652 35.6251 17.7602 34.5001L17.3102 34.2301L12.6302 35.4601L13.8752 30.9001L13.5752 30.4351C12.3418 28.4655 11.6869 26.189 11.6852 23.8651C11.6852 17.0551 17.2352 11.5051 24.0452 11.5051C27.3452 11.5051 30.4502 12.7951 32.7752 15.1351C33.9264 16.281 34.8387 17.6441 35.4593 19.1452C36.0798 20.6464 36.3962 22.2558 36.3902 23.8801C36.4202 30.6901 30.8702 36.2251 24.0602 36.2251ZM30.8402 26.9851C30.4652 26.8051 28.6352 25.9051 28.3052 25.7701C27.9602 25.6501 27.7202 25.5901 27.4652 25.9501C27.2102 26.3251 26.5052 27.1651 26.2952 27.4051C26.0852 27.6601 25.8602 27.6901 25.4852 27.4951C25.1102 27.3151 23.9102 26.9101 22.5002 25.6501C21.3902 24.6601 20.6552 23.4451 20.4302 23.0701C20.2202 22.6951 20.4002 22.5001 20.5952 22.3051C20.7602 22.1401 20.9702 21.8701 21.1502 21.6601C21.3302 21.4501 21.4052 21.2851 21.5252 21.0451C21.6452 20.7901 21.5852 20.5801 21.4952 20.4001C21.4052 20.2201 20.6552 18.3901 20.3552 17.6401C20.0552 16.9201 19.7402 17.0101 19.5152 16.9951H18.7952C18.5402 16.9951 18.1502 17.0851 17.8052 17.4601C17.4752 17.8351 16.5152 18.7351 16.5152 20.5651C16.5152 22.3951 17.8502 24.1651 18.0302 24.4051C18.2102 24.6601 20.6552 28.4101 24.3752 30.0151C25.2602 30.4051 25.9502 30.6301 26.4902 30.7951C27.3752 31.0801 28.1852 31.0351 28.8302 30.9451C29.5502 30.8401 31.0352 30.0451 31.3352 29.1751C31.6502 28.3051 31.6502 27.5701 31.5452 27.4051C31.4402 27.2401 31.2152 27.1651 30.8402 26.9851Z" fill="#8E8E8E"/>
</svg>
